<svg width="190" height="173" viewBox="0 0 190 173" fill="none" xmlns="http://www.w3.org/2000/svg">
<g opacity="0.1">
<path d="M132.405 0.071063C129.396 1.20116 126.608 2.84944 124.168 4.94125C123.357 5.79598 122.471 6.57561 121.52 7.27042C119.509 8.52647 118.077 10.5292 117.54 12.8393C117.355 14.1303 117.042 15.3998 116.608 16.6296C116.259 17.2954 116.105 18.0466 116.165 18.7957C116.225 19.5454 116.496 20.263 116.947 20.865C117.731 22.0078 118.408 23.2149 119.064 24.4006C119.552 25.2478 119.53 26.0522 118.514 26.5181C117.497 26.9841 117.773 27.3857 118.091 28.1065C118.302 28.6217 118.302 29.2001 118.091 29.7153C116.968 32.2141 115.655 34.6283 114.639 37.1475C113.027 40.5739 111.099 43.8418 108.879 46.9093C107.8 48.6027 106.19 49.9373 105.005 51.546C102.887 54.4476 100.367 57.031 98.3134 60.0161C94.9254 64.9077 91.0505 69.3966 87.2815 74.0547C84.1211 78.1484 81.502 82.6319 79.4893 87.395C78.6635 89.3219 77.6894 91.1856 76.7789 93.0482C75.1484 96.4157 73.4757 99.7392 71.9299 103.107C70.8711 105.372 70.0453 107.722 69.029 109.988C67.822 112.677 66.5516 115.324 65.26 117.971C63.333 121.973 61.5544 126.038 59.3945 129.914C55.9444 135.558 51.7175 140.691 46.8381 145.159C46.4286 145.577 45.9288 145.895 45.377 146.09C41.6221 147.234 37.853 148.343 34.0698 149.415C32.4925 149.724 31.0287 150.456 29.8349 151.532C27.7175 153.65 25.4729 155.767 23.3343 158.012C22.3065 159.108 20.9571 159.849 19.4806 160.13C18.3899 160.361 17.2871 160.53 16.1774 160.638C15.2245 160.638 14.2716 160.447 13.3188 160.51C11.9944 160.651 10.7635 161.26 9.84616 162.226C9.07202 163.091 8.14636 163.809 7.11464 164.343C5.0318 165.264 3.20679 166.682 1.79984 168.472C1.11206 169.412 0.509711 170.411 0 171.458C1.67279 172.071 2.83738 172.474 4.23491 171.817C5.63243 171.161 7.55931 170.335 9.2321 169.552C11.2306 168.424 13.4329 167.705 15.7115 167.435C18.3232 167.293 20.9416 167.342 23.5461 167.582C24.6254 167.709 25.7192 167.586 26.7434 167.223C28.4302 166.496 30.0287 165.579 31.5077 164.491C33.0597 163.178 34.9161 162.275 36.9072 161.866C38.9066 161.524 40.94 161.425 42.9631 161.569C47.6639 161.992 52.3435 162.607 57.0231 163.263C61.8386 164.155 66.7462 164.446 71.6334 164.131C74.7038 163.813 77.774 163.729 80.8232 163.412C83.8386 163.281 86.8259 162.776 89.7166 161.908C90.3547 161.761 91.0115 161.711 91.6646 161.76C94.3538 161.76 97.043 161.76 99.7109 161.548C102.76 161.294 105.788 160.701 108.838 160.32C112.832 159.651 116.719 158.455 120.399 156.762C125.057 154.857 129.631 152.761 134.225 150.706C135.981 150.014 137.68 149.186 139.308 148.229C142.822 145.964 146.337 143.698 149.683 141.241C153.028 138.785 156.988 136.901 159.444 133.343C159.539 133.175 159.679 133.036 159.847 132.942C161.188 132.174 162.294 131.053 163.044 129.702C163.268 129.38 163.515 129.075 163.785 128.791C166.283 126.259 168.577 123.533 170.645 120.639C173.786 116.701 176.699 112.586 179.369 108.315C181.588 104.905 183.345 101.217 184.599 97.3464C185.171 95.0811 186.019 92.8575 186.717 90.5922C187.607 87.5214 188.581 84.4303 189.173 81.2963C190.128 76.8267 190.257 72.2189 189.554 67.7022C189.131 65.2044 189.046 62.6413 188.708 60.1007C188.496 58.5552 187.967 57.0514 187.797 55.4844C187.248 51.922 186.231 48.4474 184.769 45.1517C183.457 41.5946 181.931 38.1008 180.767 34.5641C180.159 32.3587 179.017 30.3376 177.442 28.6774C176.848 28.0658 176.303 27.4071 175.812 26.7088C173.348 22.8443 170.281 19.3987 166.728 16.5025C164.611 14.9568 162.853 12.7335 160.079 12.077C159.987 12.0517 159.901 12.0063 159.827 11.9441C159.755 11.8818 159.696 11.8044 159.656 11.7171C158.767 9.76904 156.756 8.92202 155.421 7.48217C155.154 7.19298 154.794 7.00587 154.405 6.95285C152.518 6.41024 150.565 6.13926 148.603 6.14815C147.288 6.26982 145.979 5.86645 144.961 5.02587C142.18 3.02713 139.08 1.51627 135.792 0.558079C134.737 0.058742 133.557 -0.11102 132.405 0.071063Z" fill="white"/>
<path d="M132.405 0.071063C129.396 1.20116 126.608 2.84944 124.168 4.94125C123.357 5.79598 122.471 6.57561 121.52 7.27042C119.509 8.52647 118.077 10.5292 117.54 12.8393C117.355 14.1303 117.042 15.3998 116.608 16.6296C116.259 17.2954 116.105 18.0466 116.165 18.7957C116.225 19.5454 116.496 20.263 116.947 20.865C117.731 22.0078 118.408 23.2149 119.064 24.4006C119.552 25.2478 119.53 26.0522 118.514 26.5181C117.497 26.9841 117.773 27.3857 118.091 28.1065C118.302 28.6217 118.302 29.2001 118.091 29.7153C116.968 32.2141 115.655 34.6283 114.639 37.1475C113.027 40.5739 111.099 43.8418 108.879 46.9093C107.8 48.6027 106.19 49.9373 105.005 51.546C102.887 54.4476 100.367 57.031 98.3134 60.0161C94.9254 64.9077 91.0505 69.3966 87.2815 74.0547C84.1211 78.1484 81.502 82.6319 79.4893 87.395C78.6635 89.3219 77.6894 91.1856 76.7789 93.0482C75.1484 96.4157 73.4757 99.7392 71.9299 103.107C70.8711 105.372 70.0453 107.722 69.029 109.988C67.822 112.677 66.5516 115.324 65.26 117.971C63.333 121.973 61.5544 126.038 59.3945 129.914C55.9444 135.558 51.7175 140.691 46.8381 145.159C46.4286 145.577 45.9288 145.895 45.377 146.09C41.6221 147.234 37.853 148.343 34.0698 149.415C32.4925 149.724 31.0287 150.456 29.8349 151.532C27.7175 153.65 25.4729 155.767 23.3343 158.012C22.3065 159.108 20.9571 159.849 19.4806 160.13C18.3899 160.361 17.2871 160.53 16.1774 160.638C15.2245 160.638 14.2716 160.447 13.3188 160.51C11.9944 160.651 10.7635 161.26 9.84616 162.226C9.07202 163.091 8.14636 163.809 7.11464 164.343C5.0318 165.264 3.20679 166.682 1.79984 168.472C1.11206 169.412 0.509711 170.411 0 171.458C1.67279 172.071 2.83738 172.474 4.23491 171.817C5.63243 171.161 7.55931 170.335 9.2321 169.552C11.2306 168.424 13.4329 167.705 15.7115 167.435C18.3232 167.293 20.9416 167.342 23.5461 167.582C24.6254 167.709 25.7192 167.586 26.7434 167.223C28.4302 166.496 30.0287 165.579 31.5077 164.491C33.0597 163.178 34.9161 162.275 36.9072 161.866C38.9066 161.524 40.94 161.425 42.9631 161.569C47.6639 161.992 52.3435 162.607 57.0231 163.263C61.8386 164.155 66.7462 164.446 71.6334 164.131C74.7038 163.813 77.774 163.729 80.8232 163.412C83.8386 163.281 86.8259 162.776 89.7166 161.908C90.3547 161.761 91.0115 161.711 91.6646 161.76C94.3538 161.76 97.043 161.76 99.7109 161.548C102.76 161.294 105.788 160.701 108.838 160.32C112.832 159.651 116.719 158.455 120.399 156.762C125.057 154.857 129.631 152.761 134.225 150.706C135.981 150.014 137.68 149.186 139.308 148.229C142.822 145.964 146.337 143.698 149.683 141.241C153.028 138.785 156.988 136.901 159.444 133.343C159.539 133.175 159.679 133.036 159.847 132.942C161.188 132.174 162.294 131.053 163.044 129.702C163.268 129.38 163.515 129.075 163.785 128.791C166.283 126.259 168.577 123.533 170.645 120.639C173.786 116.701 176.699 112.586 179.369 108.315C181.588 104.905 183.345 101.217 184.599 97.3464C185.171 95.0811 186.019 92.8575 186.717 90.5922C187.607 87.5214 188.581 84.4303 189.173 81.2963C190.128 76.8267 190.257 72.2189 189.554 67.7022C189.131 65.2044 189.046 62.6413 188.708 60.1007C188.496 58.5552 187.967 57.0514 187.797 55.4844C187.248 51.922 186.231 48.4474 184.769 45.1517C183.457 41.5946 181.931 38.1008 180.767 34.5641C180.159 32.3587 179.017 30.3376 177.442 28.6774C176.848 28.0658 176.303 27.4071 175.812 26.7088C173.348 22.8443 170.281 19.3987 166.728 16.5025C164.611 14.9568 162.853 12.7335 160.079 12.077C159.987 12.0517 159.901 12.0063 159.827 11.9441C159.755 11.8818 159.696 11.8044 159.656 11.7171C158.767 9.76904 156.756 8.92202 155.421 7.48217C155.154 7.19298 154.794 7.00587 154.405 6.95285C152.518 6.41024 150.565 6.13926 148.603 6.14815C147.288 6.26982 145.979 5.86645 144.961 5.02587C142.18 3.02713 139.08 1.51627 135.792 0.558079C134.737 0.058742 133.557 -0.11102 132.405 0.071063ZM132.574 3.5013L134.691 7.10098C132.912 7.10098 132.574 5.40707 131.198 4.98357C130.266 6.86813 132.934 7.10098 132.616 8.58324C131.663 9.19729 131.155 8.28677 130.499 7.79975C129.884 7.19073 129.304 6.54745 128.762 5.87288L132.574 3.5013ZM127.556 27.3439C127.272 26.5106 126.702 25.8048 125.946 25.3539C124.908 24.6127 123.618 24.0621 123.363 22.5584C123.342 22.4662 123.302 22.3806 123.243 22.3077C123.184 22.2338 123.109 22.1749 123.024 22.1353C121.52 21.7754 121.139 20.3562 120.441 19.3183C119.849 18.3554 119.554 17.2402 119.591 16.1107C119.629 14.9811 119.998 13.8877 120.653 12.9664C120.801 13.5381 120.907 14.1098 121.097 14.6603C121.227 15.0926 121.451 15.4905 121.754 15.8249C121.902 15.9944 122.326 15.8249 122.643 15.8249C122.643 15.5496 122.643 15.2956 122.537 15.0203L121.52 11.7171C122.549 10.5773 123.834 9.69899 125.269 9.15499C124.782 9.15499 124.485 8.77379 124.972 8.4138C125.989 7.63042 127.09 6.93164 128.085 6.29638C128.783 7.31273 129.398 8.13854 129.949 9.04906C130.09 9.40541 130.155 9.788 130.138 10.1713C129.748 10.0975 129.371 9.96922 129.017 9.79013C128.417 9.27677 127.844 8.73255 127.301 8.15974L125.183 9.26081C127.153 9.15498 128.317 10.4889 127.894 12.7547L125.777 10.2561C124.337 10.129 125.608 11.6536 124.803 12.0347C124.14 12.421 123.51 12.8601 122.918 13.3475C122.77 13.898 122.621 14.4909 122.474 15.0838C122.862 15.1274 123.223 15.306 123.494 15.5884C123.765 15.8709 123.928 16.2392 123.956 16.6296C124.125 19.4458 126.306 21.0974 127.598 23.2567C127.881 23.6701 128.11 24.1189 128.276 24.5913C128.381 24.9629 128.561 25.3089 128.806 25.6088C129.05 25.9076 129.353 26.1529 129.697 26.3296C130.041 26.5064 130.417 26.6113 130.802 26.636C131.188 26.6606 131.575 26.606 131.939 26.4753C131.138 26.3821 130.383 26.049 129.776 25.521C129.168 24.9919 128.733 24.2914 128.529 23.5116C129.843 24.3374 130.859 24.9297 131.811 25.6291C131.98 25.7555 131.811 26.1797 131.939 26.4967C133.027 26.637 134.123 26.7152 135.221 26.7302C136.364 26.6467 137.503 26.4978 138.63 26.2846L140.747 29.6521L138.905 30.0966C138.693 28.4868 138.164 27.3011 136.491 27.1747C136.491 28.2758 136.491 28.2758 137.19 29.7999C136.724 30.2026 136.343 30.5839 135.856 29.7999C135.11 28.7888 134.201 27.9084 133.166 27.1961C133.166 28.2329 133.166 28.762 133.166 29.4829L132.002 28.445C131.748 28.6774 131.451 28.8263 131.325 29.0802C131.256 29.2312 131.155 29.3651 131.028 29.4722C130.901 29.5793 130.751 29.6553 130.59 29.696C130.43 29.7367 130.261 29.741 130.099 29.7078C129.937 29.6735 129.784 29.6039 129.652 29.5032C128.752 29.0095 128.022 28.2576 127.556 27.3439ZM146.485 17.6248C144.453 19.4115 142.188 20.9143 139.752 22.0924C138.971 22.4384 138.128 22.6194 137.275 22.6216C140.336 20.7097 143.067 18.3137 145.364 15.5284C144.643 15.4226 144.198 15.2109 143.966 15.3591C143.014 15.7942 142.158 16.413 141.446 17.1802C139.626 19.2434 137.35 20.8532 134.797 21.8804C133.933 22.3484 133.025 22.7308 132.087 23.0243C131.621 23.1935 131.028 23.3424 130.816 22.4106L137.296 18.6414C137.465 18.5354 137.698 18.4925 137.804 18.3447C138.778 17.0107 139.731 15.6556 140.917 13.9828C140.462 14.0539 140.02 14.1894 139.603 14.3851C138.714 15.0414 137.867 15.7402 137.021 16.5025C135.368 17.8554 133.528 18.9606 131.557 19.7843C130.879 20.1024 130.054 19.9749 129.44 20.9068C128.826 21.8386 128.211 20.4623 127.661 19.9117C131.705 16.6084 136.66 14.7662 139.9 10.2984C141.404 11.0394 143.161 11.5689 143.987 13.4745C144.258 13.9262 144.636 14.3043 145.088 14.5756L149.111 17.6035L147.629 19.0013C147.629 18.2387 147.629 17.8365 147.629 17.2437C147.227 17.2995 146.84 17.4286 146.485 17.6248ZM173.187 38.6299C173.187 39.2865 173.187 39.9634 173.038 40.62H172.784L172.106 39.1172C172.488 38.9266 172.826 38.7145 173.187 38.5453L174.542 37.2321C175.643 38.948 175.643 38.948 174.542 39.8156L173.101 38.5453L173.187 38.6299ZM161.837 45.4484L164.738 45.6176C164.992 46.8033 165.204 47.7351 165.437 49.0054L162.24 48.5181C162.133 47.6291 162.006 46.6758 161.837 45.4484ZM160.164 48.2225C159.169 47.6291 159.127 47.417 159.55 45.2149C160.291 46.528 160.291 46.528 160.164 48.2225ZM146.4 62.8534L143.838 62.5996L145.956 64.399C145.956 65.0138 145.765 65.6489 145.639 66.5165L141.615 64.8649C142.336 66.5808 144.114 66.9824 145.193 68.1681C145.193 68.9725 144.982 69.7779 144.813 70.8147L139.328 67.9143L142.293 58.4706C143.669 59.1689 144.918 59.7194 146.083 60.3974C147.248 61.0754 146.76 61.9012 146.4 62.8534ZM149.577 64.7385L147.671 63.7424C147.671 63.0441 147.861 62.4303 147.947 61.8155C150.339 62.049 150.594 62.5364 149.577 64.7385ZM147.332 65.5847C149.619 66.2198 149.64 66.2198 149.111 68.5076L146.994 67.4066C147.1 66.6225 147.226 66.072 147.332 65.5847ZM146.782 69.0582L148.899 69.9686C148.687 70.7515 148.455 71.5356 148.201 72.4663C147.438 72.1065 146.803 71.8108 146.083 71.4295C146.274 70.5191 146.506 69.8197 146.782 68.9939V69.0582ZM148.73 56.8404C150.318 57.0942 150.529 57.2635 150.572 58.6398C150.572 59.4656 150.572 60.2914 150.572 61.3925C147.989 59.6562 147.989 59.6562 148.73 56.7761V56.8404ZM146.74 58.9579C145.046 58.4277 144.982 58.0893 145.808 55.1245L147.501 55.7393L146.74 58.9579ZM143.732 57.6865C142.949 57.7926 142.505 57.5816 142.568 56.9036C142.843 53.0712 143.14 49.2379 143.457 45.1303C144.728 45.8083 144.453 46.6126 144.495 47.2478C144.41 48.5449 144.41 49.8462 144.495 51.1444C144.686 52.3301 143.817 53.2619 144.072 54.5108C144.122 55.539 144.009 56.5683 143.732 57.5601V57.6865ZM148.942 54.5322C148.942 53.4097 149.831 53.4525 150.72 53.0712C150.72 53.9388 150.72 54.7229 150.72 55.6547C149.788 55.358 149.027 55.3366 148.942 54.4047V54.5322ZM147.226 54.1295C145.554 53.7064 145.109 52.9866 145.702 50.9955C147.883 51.801 147.904 51.8642 147.226 54.0031V54.1295ZM149.005 48.4977C151.123 49.3653 151.123 49.4082 150.382 51.9488C148.327 51.2708 149.853 49.3867 149.005 48.3703V48.4977ZM147.544 50.2543C145.871 50.2543 145.659 49.9587 145.787 48.6027C145.787 47.9044 145.977 47.206 146.105 46.3588C148.073 47.3967 148.222 47.3538 147.544 50.1279V50.2543ZM149.153 45.1731C150.318 45.1731 150.488 45.8929 150.466 47.0357C149.365 46.528 148.709 46.2099 149.153 45.0457V45.1731ZM147.501 45.7451L145.787 44.961C145.893 44.3259 145.977 43.7754 146.062 43.2034C147.798 43.6061 147.798 43.6061 147.501 45.6176V45.7451ZM149.979 41.51L150.191 43.8386C148.815 42.5897 148.815 42.5897 149.979 41.3611V41.51ZM148.032 42.3358C147.615 42.2662 147.205 42.1677 146.803 42.0391C146.569 41.9352 146.343 41.8153 146.125 41.6793C146.105 41.3547 146.105 41.0291 146.125 40.7046C146.21 40.304 146.316 39.9088 146.443 39.5189C147.967 39.7095 147.735 40.9166 148.032 42.293V42.3358ZM144.41 44.1352H143.987C143.987 42.2084 144.198 40.3029 144.347 37.9733C144.936 39.9313 144.958 42.0166 144.41 43.9874V44.1352ZM146.105 32.1081H146.591C147.192 34.1699 147.456 36.3142 147.375 38.4607C146.888 38.1426 146.422 37.9947 146.4 37.8041C146.253 35.9404 146.105 33.9718 146.105 32.1081ZM144.749 37.2536C144.263 36.9151 143.881 36.8091 143.881 36.6398C143.714 34.8029 143.923 32.951 144.495 31.1977C145.223 33.1385 145.306 35.2624 144.728 37.2536H144.749ZM148.561 33.8229C149.348 35.4766 149.635 37.3242 149.387 39.1376C148.565 37.4956 148.277 35.6373 148.561 33.8229ZM152.796 32.6372C154.108 32.2141 154.701 32.6372 154.913 33.9289L153.6 34.5855C153.833 34.8393 153.939 35.0514 154.066 35.0514C154.428 35.0407 154.782 35.1617 155.061 35.391C155.342 35.6212 155.529 35.9436 155.59 36.3003C156.141 38.7574 156.756 41.2133 157.391 43.9232L155.083 44.3473C154.363 40.4293 153.6 36.6184 152.838 32.7015L152.796 32.6372ZM141.319 25.3539C141.89 26.6242 142.399 27.8099 142.928 28.9955L142.568 29.228L140.049 25.8616L141.319 25.3539ZM132.511 25.6923C133.209 25.2746 133.992 25.0208 134.802 24.9469C135.611 24.874 136.428 24.9833 137.19 25.2693C136.536 25.7834 135.75 26.1026 134.923 26.1925C134.096 26.2825 133.259 26.139 132.511 25.777V25.6923ZM152.076 30.6043C151.779 29.7367 151.313 28.8049 152.436 27.7252L154.066 30.8378C152.627 31.8114 152.456 31.7054 152.076 30.69V30.6043ZM159.678 31.5576C160.779 31.1548 161.075 31.9806 161.54 33.1031C160.545 33.1031 159.741 33.8443 159.423 32.6372C159.296 32.4262 159.465 31.7054 159.678 31.7054V31.5576ZM157.306 33.8229C156.395 33.6751 156.353 32.9767 156.268 32.2773C157.602 32.3834 157.602 32.3834 157.306 33.8229ZM165.775 36.1739C164.463 36.1739 164.483 35.2206 164.06 34.7547C164.06 35.2206 164.06 35.708 164.251 36.4278L160.503 36.8305L159.974 34.713C161.054 34.713 161.901 33.9504 162.79 34.924C162.959 35.1146 163.616 34.924 164.06 34.7762L164.843 34.3734L165.775 36.1739ZM166.834 34.6701C167.617 35.1789 167.639 35.1575 168.253 36.2799C167.279 35.9404 167.279 35.9404 166.941 34.7547L166.834 34.6701ZM161.52 39.9634L160.842 38.27C164.103 37.0211 165.267 37.381 165.881 39.731C164.674 40.3875 164.802 38.9898 164.082 38.5453C163.937 39.0594 163.604 39.4996 163.148 39.7792C162.693 40.0576 162.148 40.154 161.626 40.0491L161.52 39.9634ZM159.318 40.1755C159.021 40.1755 158.555 40.1755 158.492 40.1755C158.249 39.686 158.049 39.1761 157.898 38.6513C158.449 38.1426 158.852 38.2068 159.042 38.7574C159.174 39.2211 159.266 39.6956 159.318 40.1755ZM157.56 36.9997C157.343 36.4085 157.18 35.799 157.073 35.1789C158.174 35.3695 158.958 36.5756 158.47 37.0843C158.325 37.1486 158.166 37.1764 158.007 37.1657C157.848 37.155 157.695 37.1047 157.56 37.0211V36.9997ZM168.359 37.8255C169.65 37.9947 169.672 38.0162 169.735 39.7942C168.253 39.8788 168.253 39.8788 168.359 37.8469V37.8255ZM158.809 41.3397C159.07 41.4436 159.302 41.6086 159.483 41.8228C159.665 42.0359 159.792 42.2908 159.852 42.564C159.913 42.8382 159.906 43.122 159.831 43.393C159.756 43.6629 159.615 43.9103 159.423 44.1138C159.141 43.7164 158.942 43.2655 158.837 42.7889C158.731 42.3133 158.721 41.8206 158.809 41.3397ZM166.305 45.9561C168.062 44.9825 169.037 45.4055 169.544 49.0054C167.152 49.556 166.77 49.2175 166.241 45.9561H166.305ZM171.408 48.3917C171.26 47.7137 170.985 47.0571 170.688 46.1467L172.191 45.7451C172.874 46.799 173.248 48.0243 173.272 49.2807C172.234 49.6192 171.514 49.556 171.345 48.3917H171.408ZM161.774 44.4105C161.774 43.2677 161.626 42.4836 161.562 41.4672L163.891 41.2551C164.06 42.2512 164.208 43.0556 164.378 44.1567L161.774 44.4105ZM165.309 41.4886C165.638 41.3279 166.014 41.2905 166.367 41.3836C166.721 41.4779 167.029 41.6953 167.236 41.9963C168.02 42.971 168.083 43.0556 167.808 44.4533H166.135C165.86 43.3941 165.585 42.4204 165.309 41.3826V41.4886ZM169.798 44.4105C169.503 43.4787 169.206 42.5051 168.909 41.51C171.027 41.1501 171.852 41.9545 171.811 44.7072L169.798 44.4105ZM175.96 40.832C177.358 42.7161 177.336 43.0556 175.664 43.4787C174.711 41.4458 174.711 41.4458 175.96 40.8749V40.832ZM171.725 37.5502C170.476 36.0893 171.048 35.0943 173.441 34.5437C174.161 36.2371 174.161 36.2371 171.789 37.592L171.725 37.5502ZM170.01 34.819C170.01 33.9289 170.01 33.252 170.179 32.9971C170.349 32.7432 171.535 31.8757 172.53 33.1877L170.01 34.819ZM165.267 32.468C163.447 33.1674 163.15 33.0817 162.346 31.3669L164.103 30.584C164.589 31.3251 164.971 31.896 165.331 32.5108L165.267 32.468ZM168.994 30.8378C169.56 30.4983 170.147 30.1941 170.751 29.9274C170.751 30.4993 171.005 31.1548 170.879 31.2191C170.317 31.61 169.657 31.8382 168.972 31.8757C168.549 31.8757 168.571 31.1763 169.058 30.8796L168.994 30.8378ZM157.814 28.4022C157.623 27.1533 155.887 26.4967 157.031 24.994C158.555 26.4549 158.809 27.2379 157.877 28.445L157.814 28.4022ZM159.931 25.3742L163.044 29.228C163.054 29.3479 163.054 29.469 163.044 29.5878C162.599 29.5878 161.964 29.7153 161.752 29.4615C160.878 28.2758 160.113 27.0151 159.465 25.6923L159.931 25.3742ZM154.934 29.0802C154.701 28.4664 154.511 27.8945 154.172 26.9626C155.908 27.8516 155.993 28.1912 154.892 29.123L154.934 29.0802ZM146.105 27.9791C145.639 28.5725 145.13 28.8681 144.622 28.2115C144.114 27.556 143.266 26.2 142.505 25.099C142.822 24.9083 143.14 24.633 143.225 24.6759C144.43 25.537 145.415 26.6681 146.105 27.9791ZM138.693 24.5698L141.446 23.9133C141.329 24.1725 141.154 24.4006 140.935 24.5806C140.714 24.7605 140.456 24.8869 140.18 24.9501C139.902 25.0143 139.615 25.0133 139.339 24.9469C139.062 24.8805 138.805 24.7519 138.587 24.5698H138.693ZM126.835 18.0906C126.475 16.1002 126.835 15.105 128.36 14.4909C129.884 13.8768 131.261 13.3687 132.595 12.7335C133.327 12.3463 134.034 11.9149 134.713 11.4418C135.623 10.9336 136.512 10.3831 137.444 9.95958C137.944 9.8272 138.476 9.87207 138.948 10.0866C135.284 13.3317 131.168 16.0277 126.73 18.0906H126.835ZM39.5117 149.373C41.0332 148.554 42.7389 148.139 44.4666 148.166L39.5964 149.796L39.5117 149.373ZM57.1713 161.019L56.3455 158.901L59.8816 157.546L64.7305 160.659C62.3043 161.536 59.6699 161.661 57.1713 161.019ZM45.504 156.996L46.944 158.351C46.882 158.443 46.8322 158.543 46.7958 158.647L43.429 158.139L45.504 156.996ZM41.2692 157.757L40.0622 157.525V157.165L41.2903 157.356C41.2377 157.486 41.1952 157.62 41.1633 157.757H41.2692ZM84.5711 142.724C85.0369 143.042 85.5028 143.337 86.011 143.634C83.8935 145.435 83.7241 145.752 81.2467 142.873L83.0465 141.729C83.4912 142.11 83.9783 142.427 84.4653 142.724H84.5711ZM84.5711 140.988L86.6885 139.674L89.3989 141.453C87.2603 143.359 86.5192 143.274 84.5711 140.988ZM79.7221 143.803C80.6326 144.249 81.4797 144.841 82.369 145.392C81.2891 146.514 81.2891 146.514 78.6423 144.375C79.1293 144.122 79.5528 143.719 79.7221 143.803ZM62.1261 152.761C65.6411 150.283 65.6411 151.151 67.7585 152.824L64.307 154.518C63.5237 153.904 62.8249 153.353 62.1261 152.761ZM62.6554 154.878C60.7921 156.361 60.1357 156.339 58.0182 154.625C60.2204 152.973 60.2204 152.973 62.6554 154.92V154.878ZM72.3111 150.474L69.2195 152.104L67.2504 150.537L69.876 148.929L72.3111 150.474ZM71.697 148.357C73.8145 146.959 73.8145 146.959 75.9319 148.886L73.7085 149.945L71.697 148.357ZM70.6806 153.099C72.3111 151.786 73.031 151.532 74.3438 151.638L77.2235 149.859L78.9598 150.771C78.9598 150.156 78.9598 149.754 78.9598 149.288L81.5432 148.166L82.983 149.288C79.4713 151.579 75.7403 153.516 71.8452 155.069L70.6806 153.099ZM75.3601 146.62C77.4777 144.904 77.6894 144.926 79.5951 146.853C78.3458 148.758 76.8212 148.589 75.3601 146.62ZM75.4873 144.354C73.9838 145.688 73.9838 145.688 72.3746 144.757L68.8808 142.767C68.8808 142.576 68.8808 142.407 68.8808 142.236L70.9983 141.051L75.4873 144.354ZM72.0993 146.471L70.2783 147.446L65.6411 144.566L68.0338 143.444C68.7325 144.989 70.7441 145.095 72.0993 146.408V146.471ZM68.7749 148.038L65.6411 149.564L61.8721 147.446L63.9895 145.54L68.7749 148.038ZM63.0577 150.156C59.8605 151.892 60.7921 152.273 57.4466 149.775C59.7545 148.293 61.4061 148.378 63.0577 150.283V150.156ZM58.5687 152.612L56.4513 153.713L53.8892 152.041C55.1597 150.135 56.282 150.283 58.5687 152.655V152.612ZM51.073 151.892L55.0538 154.518C54.0797 155.154 53.4022 155.64 52.7034 156.043C52.5862 156.106 52.4553 156.139 52.3223 156.139C52.1893 156.139 52.0583 156.106 51.9411 156.043C50.2048 154.942 48.5109 153.799 46.7958 152.655C46.7958 152.655 46.6898 152.422 46.5628 152.126L49.6332 150.474L51.073 151.892ZM58.2089 156.762C56.6419 156.762 55.2444 158.457 53.4446 156.974C56.2396 155.175 56.9171 155.005 58.2089 156.805V156.762ZM45.864 154.159C44.9324 155.154 44.8477 155.132 43.2596 153.269C43.4911 153.155 43.7431 153.089 44.0007 153.075C44.2582 153.06 44.5161 153.097 44.7589 153.184C45.0018 153.271 45.2248 153.406 45.4146 153.58C45.6045 153.755 45.7573 153.966 45.864 154.2V154.159ZM42.3491 154.9C41.121 155.154 41.121 155.154 40.761 153.883L42.3491 154.9ZM50.5013 157.144L48.7014 158.288C47.8756 157.482 47.1345 156.721 46.3087 155.937C48.0874 155.132 48.8497 155.386 50.5648 157.144H50.5013ZM55.2867 160.616L52.407 160.341C54.1857 158.754 54.4185 158.754 55.3503 160.616H55.2867ZM79.9763 160.616C76.0553 161.558 72.0158 161.907 67.9914 161.654C70.4053 161.019 72.8616 160.49 75.212 159.706C76.0031 159.327 76.8925 159.202 77.7573 159.35C78.6222 159.498 79.4198 159.911 80.0398 160.532L79.9763 160.616ZM86.3286 159.664L85.4604 159.79C85.4709 159.664 85.4709 159.536 85.4604 159.409H86.3286C86.3475 159.465 86.3616 159.521 86.3709 159.579L86.3286 159.664ZM79.6163 158.583C79.8993 158.258 80.2465 157.994 80.6363 157.809C81.026 157.624 81.45 157.521 81.8813 157.507C82.3127 157.493 82.7423 157.568 83.1432 157.727C83.5442 157.887 83.9077 158.128 84.2111 158.435C82.729 159.473 81.3102 160.15 79.6586 158.499L79.6163 158.583ZM89.3778 159.283C88.9754 159.409 88.4037 158.838 87.7473 158.478C89.3354 157.334 90.7117 156.551 92.5751 157.948C91.6783 158.682 90.5758 159.119 89.4201 159.198L89.3778 159.283ZM113.39 144.46C112.183 146.324 111.886 146.43 110.214 145.582L108.561 144.629L109.557 143.656C109.833 143.38 110.128 143.126 110.531 142.787L113.39 144.46ZM111.695 141.813L113.262 140.31L114.957 141.051L116.459 141.813C114.723 143.931 114.723 143.931 111.695 141.813ZM117.646 146.705C116.418 148.166 115.824 148.166 113.771 146.705C115.317 145.223 115.677 145.223 117.646 146.684V146.705ZM106.487 144.714C104.56 146.556 104.369 146.556 102.442 145.329C103.988 143.423 104.454 143.337 106.487 144.693V144.714ZM107.291 145.244L110.299 146.747C108.837 148.398 108.308 148.864 105.64 146.62L107.291 145.244ZM111.844 147.362L113.199 147.848L114.491 148.357C112.373 149.945 112.373 150.177 110.256 148.758L111.844 147.362ZM107.355 148.97C105.005 150.771 105.005 150.771 102.993 149.182L104.539 147.509L107.355 148.97ZM110.806 150.474C109.79 150.94 109.027 151.321 108.244 151.597C108.011 151.597 107.694 151.448 107.355 151.342C108.858 149.711 108.858 149.711 110.806 150.516V150.474ZM103.565 151.109C102.21 152.676 102.21 152.676 100.325 151.469C101.638 149.945 101.977 149.902 103.565 151.151V151.109ZM96.7042 151.342C94.7772 153.459 94.4808 153.459 91.3893 151.892L94.5019 150.071L96.7042 151.342ZM98.8216 152.083L100.791 153.121C99.2662 154.9 98.9063 154.942 96.4289 153.65L98.8216 152.083ZM92.4692 154.031C90.9235 155.895 89.166 155.195 87.1967 154.56C89.4413 152.549 90.2036 152.57 92.5963 154.074L92.4692 154.031ZM97.0005 155.365C94.2056 157.8 94.2902 157.482 91.9822 156.106C93.6973 155.111 95.1584 153.713 97.1276 155.407L97.0005 155.365ZM87.4085 156.233C86.6674 157.482 86.6674 157.482 83.4277 156.424C84.9946 155.26 86.2439 155.81 87.5355 156.276L87.4085 156.233ZM95.5395 158.499C97.3182 157.271 98.8851 156.064 100.558 155.089C101.667 154.6 102.824 154.224 104.009 153.968C104.009 153.799 104.009 153.333 103.882 152.845C104.539 152.422 105.068 151.597 106.233 152.189L104.877 153.396C106.345 153.378 107.79 153.038 109.112 152.401C110.293 151.816 111.51 151.307 112.755 150.876C110.214 154.094 99.5204 159.706 95.6666 158.541L95.5395 158.499ZM122.029 152.973C119.749 153.966 117.372 154.719 114.935 155.217C116.587 154.137 118.239 153.099 119.933 152.02C120.928 151.511 121.309 152.401 122.155 153.015L122.029 152.973ZM123.618 151.956C121.934 151.289 120.396 150.305 119.086 149.055C117.751 149.584 118.747 150.389 118.811 150.96C112.183 156.064 104.92 159.43 101.659 158.626C101.883 158.454 102.125 158.305 102.379 158.182C106.996 156.349 111.286 153.783 115.083 150.58C116.227 149.648 117.794 149.267 118.577 147.827C118.658 147.699 118.774 147.597 118.911 147.532C119.048 147.466 119.2 147.442 119.35 147.459C119.501 147.477 119.644 147.537 119.762 147.631C119.879 147.727 119.968 147.853 120.018 147.997C120.335 149.394 121.436 149.924 122.41 150.643C122.937 151.005 123.39 151.465 123.744 151.998L123.618 151.956ZM130.562 144.481C131.176 143.888 131.43 143.465 131.663 143.465C132.955 143.465 133.781 144.375 134.839 145.286C132.977 146.642 132.362 144.524 130.689 144.524L130.562 144.481ZM138.63 144.185C138.207 145.075 137.741 145.561 136.512 145.117C137.359 144.418 137.783 143.931 138.757 144.228L138.63 144.185ZM141.064 142.702L139.498 143.465C140.112 142.342 140.112 142.342 141.192 142.745L141.064 142.702ZM144.22 140.246C142.802 141.772 142.802 141.772 141.805 140.734C142.674 140.352 143.14 139.273 144.347 140.289L144.22 140.246ZM147.65 138.129C145.808 139.654 145.808 139.654 144.707 138.468C146.105 136.943 146.105 136.943 147.777 138.235L147.65 138.129ZM150.403 136.011C149.196 137.303 149.196 137.303 147.375 136.223C148.836 134.678 148.836 134.678 150.529 136.054L150.403 136.011ZM153.728 133.449C152.732 135.122 152.393 135.185 150.276 134.043C151.419 132.179 152.69 133.555 153.854 133.492L153.728 133.449ZM155.421 132.052L154.829 132.857L152.478 131.734C153.516 131.622 154.565 131.745 155.549 132.094L155.421 132.052ZM157.539 129.934C156.438 131.099 155.93 131.078 152.076 129.702C152.33 129.194 152.562 128.728 152.796 128.304L157.539 129.934ZM160.63 127.097C158.958 129.088 158.724 129.214 156.395 128.113L154.829 127.393C156.544 127.14 157.877 128.516 159.318 127.246C158.534 126.145 157.2 126.546 156.205 125.996C155.196 125.547 154.155 125.172 153.091 124.874C152.774 125.509 152.541 125.954 152.351 126.398H149.683L151.398 128.219C150.594 129.596 148.899 129.554 147.608 130.549L149.725 132.666C149.153 133.577 148.455 133.703 147.481 133.068C146.799 132.723 146.091 132.433 145.364 132.2C144.304 134.318 147.121 133.512 147.121 134.974C146.76 135.588 146.274 136.096 145.279 135.355C144.601 134.936 143.893 134.567 143.161 134.254C142.59 135.355 142.59 135.355 144.58 136.88C143.966 138.426 143.203 138.235 142.187 137.515C141.17 136.795 140.069 136.181 139.117 135.525C138.998 135.696 138.919 135.892 138.884 136.098C138.849 136.304 138.859 136.514 138.914 136.715C138.968 136.916 139.066 137.104 139.198 137.264C139.332 137.424 139.499 137.553 139.688 137.643C140.429 138.15 141.213 138.595 141.996 139.061C141.023 140.797 140.747 140.881 139.265 139.739C138.905 139.463 138.63 139.039 138.227 138.87C137.835 138.805 137.434 138.805 137.041 138.87C137.041 139.294 137.041 139.823 137.296 140.077C137.964 140.674 138.672 141.226 139.413 141.729C139.074 142.004 138.82 142.258 138.545 142.512L134.755 139.611C134.596 139.775 134.479 139.974 134.415 140.194C134.351 140.412 134.341 140.644 134.387 140.868C134.433 141.091 134.533 141.3 134.679 141.476C134.824 141.652 135.009 141.79 135.221 141.877C135.898 142.342 136.64 142.745 137.592 143.296L136.005 144.693C134.544 143.974 133.294 143.233 133.336 141.178C132.701 141.538 131.98 141.686 131.642 142.131C131.473 142.455 131.235 142.739 130.946 142.962C130.656 143.184 130.32 143.342 129.965 143.422C129.608 143.502 129.237 143.505 128.881 143.427C128.523 143.351 128.187 143.198 127.894 142.978C128.127 143.952 128.297 144.587 128.423 145.095C130.255 145.498 131.9 146.495 133.103 147.932C132.552 148.504 132.087 148.61 131.557 148.081C130.52 147.065 129.44 146.091 128.423 145.095H128.085C127.598 144.969 127.026 144.587 126.75 145.329C126.475 146.07 127.11 146.112 127.534 146.43C128.614 147.255 129.652 148.187 130.604 149.033C130.202 150.071 129.673 150.05 128.995 149.584C127.704 148.674 126.412 147.806 125.099 146.959C124.602 146.688 124.086 146.454 123.553 146.26C122.961 147.594 123.828 147.997 124.528 148.378C125.671 149.076 126.878 149.711 128.508 150.495L125.84 151.575C123.869 150.423 122.228 148.782 121.076 146.811C122.58 145.646 124.168 144.503 125.692 143.274C126.499 142.619 127.263 141.911 127.979 141.157C128.508 140.585 128.466 140.543 127.979 139.399C127.69 139.624 127.414 139.864 127.153 140.12C125.128 142.368 122.754 144.277 120.124 145.773C119.859 145.958 119.545 146.057 119.223 146.057C118.902 146.057 118.587 145.958 118.323 145.773C117.603 145.35 116.841 145.01 116.036 144.566C116.269 144.065 116.639 143.638 117.104 143.339C117.569 143.039 118.109 142.877 118.662 142.873C119.562 143.07 120.427 143.405 121.225 143.868L121.436 143.508L119.636 141.813C119.953 141.2 120.991 140.67 120.081 139.505L117.709 141.178L114.343 139.442C115.824 138.066 117.18 136.774 118.577 135.482C118.792 135.226 119.09 135.053 119.419 134.995C119.749 134.937 120.088 134.997 120.377 135.165L123.469 136.943C122.283 138.193 121.225 138.785 119.699 137.918C119.419 137.696 119.073 137.575 118.715 137.575C118.357 137.575 118.01 137.696 117.731 137.918C118.94 138.683 120.233 139.308 121.585 139.78C122.812 140.056 123.702 141.496 125.354 140.818C124.866 139.611 123.49 140.014 122.897 139.124C123.787 138.341 124.591 137.452 125.925 138.426C126.475 138.828 127.005 138.679 127.471 137.938L126.052 136.943C127.303 135.043 128.72 133.258 130.287 131.607C130.838 131.205 131.579 130.591 131.05 129.489C130.647 129.68 130.138 129.765 129.884 130.083C128.338 131.379 126.976 132.883 125.84 134.55C125.099 136.033 124.443 136.181 123.024 135.376C122.24 134.953 121.5 134.466 120.695 133.958C122.177 132.411 123.511 131.099 124.76 129.723C125.163 129.257 125.84 128.558 124.633 127.881C123.405 129.194 122.198 130.57 120.928 131.841C118.641 134.084 116.333 136.308 113.982 138.468C113.524 138.789 113.016 139.032 112.479 139.188C112.216 139.734 111.897 140.253 111.526 140.734C110.679 141.559 109.768 142.322 108.858 143.062C107.566 144.143 107.566 144.143 105.852 142.851C106.619 142.344 107.329 141.754 107.969 141.094C108.435 140.5 109.599 139.971 108.626 138.701C107.757 139.527 106.995 140.31 106.169 141.009C105.343 141.707 105.132 142.258 104.179 142.067C104.092 142.073 104.008 142.096 103.931 142.137C103.855 142.176 103.788 142.232 103.734 142.301C103.586 143.868 101.955 143.803 101.32 144.757L99.0546 143.846C99.7321 146.26 102.104 145.816 103.289 147.065C102.929 148.038 101.892 148.144 101.172 148.674C99.5976 147.93 97.9517 147.349 96.2595 146.937C96.9794 148.441 98.6522 148.547 99.8167 149.542C99.7358 149.756 99.6083 149.949 99.4436 150.108C99.2788 150.266 99.081 150.386 98.8643 150.459C98.6475 150.532 98.4174 150.557 98.1903 150.53C97.9632 150.503 97.7449 150.426 97.5511 150.305C96.9012 150.014 96.2777 149.666 95.6877 149.267C95.2621 148.963 94.7388 148.827 94.2186 148.885C93.6986 148.943 93.2187 149.193 92.8715 149.584C92.5752 149.922 92.2245 150.208 91.834 150.431C88.552 152.21 85.3122 154.01 81.9879 155.704C78.5087 157.52 74.7862 158.825 70.9347 159.579C70.7441 159.579 70.5324 159.579 70.363 159.579C69.0925 159.918 67.7374 160.744 66.6151 160.51C65.2936 159.96 64.0761 159.185 63.0154 158.223L61.3003 156.974C63.2695 155.726 64.0107 155.726 65.5352 156.974C66.0646 157.377 66.4881 157.885 67.0174 158.245C67.5467 158.605 67.9067 158.711 67.8856 157.885C67.7471 157.574 67.5692 157.282 67.3562 157.016C66.8269 156.466 66.234 156.001 65.4928 155.365L68.9443 153.799L70.9136 155.28C69.9818 156.361 68.2032 156.339 67.8856 157.885C71.8463 156.548 75.6856 154.876 79.3622 152.887C81.6067 151.681 83.8088 150.41 85.9899 149.119C86.543 148.712 87.0602 148.259 87.5355 147.763C86.3709 147.213 85.6934 147.912 84.9946 148.251C84.2958 148.589 83.5123 148.483 82.8772 147.509L87.6626 144.757C88.4673 144.757 89.2506 146.451 90.3094 144.863L88.9331 143.677L90.5424 142.385L92.808 143.508L91.6222 144.82C92.0985 144.837 92.5752 144.794 93.041 144.693C96.3604 143.148 99.464 141.176 102.273 138.828C102.993 138.172 103.84 137.684 104.623 137.092C104.835 136.922 105.005 136.668 105.364 136.287C104.978 136.262 104.591 136.317 104.226 136.447C103.862 136.579 103.529 136.784 103.247 137.049C100.939 138.553 98.6098 139.992 96.3653 141.581C95.788 142.032 95.0761 142.277 94.3432 142.277C93.6102 142.277 92.8983 142.032 92.321 141.581C93.7608 140.5 95.1372 139.463 96.5559 138.426C97.9746 137.388 99.3298 136.308 100.791 135.122C101.468 134.529 101.468 134.36 101.384 133.217C100.346 133.217 99.7744 133.937 99.0969 134.487C96.7888 136.287 94.5019 138.129 92.1728 139.929C91.6996 140.24 91.2041 140.516 90.6906 140.755L88.1285 138.891C89.927 136.714 92.0648 134.841 94.4596 133.343C97.0429 131.941 99.4046 130.164 101.468 128.071C101.659 127.838 101.955 127.605 102.019 127.309C102.052 127.161 102.05 127.008 102.013 126.86C101.977 126.713 101.906 126.577 101.807 126.462C101.678 126.39 101.532 126.351 101.384 126.351C101.235 126.351 101.09 126.39 100.96 126.462C100.227 127.294 99.4495 128.085 98.6311 128.833C95.6454 131.163 92.5963 133.408 89.5259 135.63C87.4085 137.197 85.1428 138.658 82.9407 140.183L79.0869 137.218C78.7481 139.59 80.9503 139.611 81.5644 140.818C80.1244 141.941 79.701 141.919 78.4093 140.818C77.6721 140.276 76.9011 139.78 76.1013 139.336C75.9531 140.5 75.9531 140.5 78.2188 142.385C77.9435 143.126 77.3929 143.444 76.7154 143.084C75.3178 142.279 74.005 141.369 72.4804 140.395C74.365 138.891 76.0589 137.515 77.7952 136.16C79.9128 134.487 82.0302 132.942 84.1476 131.205C85.0183 130.323 85.792 129.35 86.4557 128.304C86.5204 128.154 86.5537 127.991 86.5537 127.827C86.5537 127.663 86.5204 127.502 86.4557 127.352C81.4245 132.08 75.9664 136.334 70.1513 140.056C64.4429 143.92 58.5184 147.455 52.407 150.643L51.0095 149.69C52.1741 149.055 53.1269 148.504 54.2069 147.932C55.2867 147.362 55.8796 146.917 56.6843 146.345C57.4889 145.773 58.6959 144.926 59.6698 144.228C60.1185 143.814 60.5361 143.369 60.9191 142.893L60.6651 142.555C60.3352 142.608 60.0144 142.708 59.7122 142.851C57.1078 144.481 54.6303 146.366 51.8988 147.721C48.4686 149.458 44.8477 150.791 41.3115 152.252C40.8026 152.36 40.2855 152.423 39.7658 152.443C38.453 152.739 37.1613 153.078 35.5309 153.459C36.7378 155.195 38.1353 154.222 39.3846 154.349V155.661L34.6204 156.699C33.873 157.618 33.0592 158.483 32.1853 159.283C30.7877 160.362 29.2633 161.251 27.781 162.226C27.5693 162.374 27.2517 162.458 27.1457 162.649C25.6212 165.105 22.9108 164.894 20.6664 165.126C18.4505 165.179 16.234 165.051 14.0387 164.745L25.0918 163.708C24.8589 162.458 24.1813 162.586 23.419 162.67C20.3699 162.987 17.2996 163.242 14.2505 163.559C13.669 163.658 13.0957 163.799 12.5354 163.984C12.8742 164.343 12.98 164.534 13.1494 164.597C13.4565 164.662 13.7679 164.704 14.081 164.725C13.2672 164.67 12.4498 164.713 11.6459 164.851C10.6888 165.183 9.76677 165.608 8.89331 166.121C7.83895 166.96 6.58322 167.507 5.25129 167.71C5.59898 167.351 5.96658 167.012 6.35237 166.693C8.3216 165.296 10.312 163.899 12.3236 162.458C12.7432 162.163 13.2318 161.981 13.7423 161.929C15.5578 161.618 17.4213 161.733 19.1841 162.268C20.4123 162.798 21.4499 161.972 22.5932 161.908C22.6506 161.899 22.7052 161.878 22.7529 161.845C22.8006 161.811 22.8401 161.769 22.8685 161.717C23.419 159.727 25.1977 158.754 26.5105 157.482C27.8406 156.072 29.2548 154.742 30.7454 153.502C31.6477 152.891 32.5964 152.354 33.5828 151.892L35.1921 152.782C36.2521 152.472 37.2746 152.045 38.2413 151.511C40.0896 150.577 42.0661 149.92 44.1066 149.564C46.083 148.897 48.02 148.12 49.9084 147.234C51.0893 146.57 52.2151 145.813 53.2751 144.969C54.492 144.214 55.6526 143.372 56.7478 142.448C58.8652 140.331 60.9826 138.023 63.1002 135.842C62.6131 134.974 62.1049 135.292 61.7238 135.63C60.284 136.859 58.844 138.087 57.4889 139.379C56.1337 140.67 55.075 141.75 53.8892 142.957L53.5292 142.682C53.7586 142.285 54.0132 141.902 54.2915 141.538C55.4138 140.352 56.5784 139.188 57.7006 138.023C60.0042 135.39 61.9611 132.472 63.5237 129.342C64.8746 127.017 66.0975 124.621 67.1869 122.163C69.0078 118.056 70.6171 113.842 72.4592 109.735C74.0897 106.113 75.9107 102.576 77.647 98.998C78.6846 96.8816 79.6375 94.7641 80.7386 92.6465C82.3478 89.5126 83.8723 86.294 85.7781 83.3506C88.9966 78.4376 92.6175 73.7795 95.836 68.8675C98.8004 64.3144 102.188 60.1436 105.364 55.6547C108.541 51.1647 111.229 47.1846 114.025 42.9496C115.507 40.6414 116.756 38.1854 118.048 35.7712C119.149 33.6537 120.165 31.7054 121.203 29.6521C121.563 28.9109 121.86 28.1269 122.198 27.3225C122.981 27.45 123.172 27.873 122.876 28.445L118.874 35.9404L118.408 36.8091L115.401 42.7803C114.343 44.8979 113.284 47.0154 112.204 49.1329C111.344 50.8038 110.375 52.4168 109.303 53.9602C107.588 56.3959 106.127 59.0211 104.539 61.6259C104.69 61.7481 104.869 61.8327 105.06 61.8723C105.251 61.9109 105.448 61.9034 105.636 61.8487C105.823 61.7952 105.994 61.6966 106.135 61.5617C106.276 61.4267 106.382 61.2596 106.444 61.0754C107.926 58.4074 110.256 56.2052 111.04 53.1344C111.098 52.8752 111.222 52.6342 111.4 52.4361C113.126 50.6485 114.556 48.5974 115.634 46.3588C116.722 44.4801 117.704 42.5436 118.577 40.5568C120.313 36.9569 121.965 33.357 123.681 29.7581C123.681 29.5461 124.019 29.4186 124.548 28.9323C123.575 33.7179 120.779 37.1904 119.212 41.1919C117.646 45.1945 115.867 49.0686 114.11 53.1559C114.448 53.1559 114.808 53.1559 114.999 53.007C115.798 52.4254 116.446 51.6596 116.888 50.7759C117.33 49.8912 117.553 48.9144 117.54 47.9258C117.496 47.5755 117.533 47.2199 117.646 46.8868C117.76 46.5527 117.948 46.2495 118.197 45.9989C120.085 43.8107 121.459 41.2283 122.22 38.4392C122.621 37.2321 123.49 36.1311 123.215 34.7333C123.199 34.6712 123.199 34.6059 123.215 34.5437L125.883 30.8378C126.031 31.0916 126.391 31.4098 126.327 31.6208C126.152 32.7861 125.756 33.9075 125.163 34.924C124.79 35.4874 124.518 36.1107 124.358 36.7662C123.618 38.8837 122.812 41.0013 121.88 42.9281C119.538 48.1518 117.096 53.339 114.554 58.492C113.347 60.8848 111.929 63.1501 110.594 65.4797L106.063 73.5042C107.319 73.0083 108.361 72.0861 109.007 70.9004C111.37 67.2962 113.492 63.54 115.358 59.6562C117.031 55.8239 119.128 52.1608 121.013 48.4121C121.394 47.6505 121.626 46.8247 121.986 46.0621C122.346 45.2995 122.643 44.8336 122.981 44.1984C124.972 45.1088 125.502 47.0571 126.878 48.4335C126.687 49.1329 126.475 49.8527 126.2 50.7845L122.516 47.4813L122.198 47.6719C122.264 48.0436 122.393 48.4013 122.58 48.7302C123.13 49.3653 123.828 49.8944 124.379 50.5296C125.798 52.1608 125.82 52.6471 124.654 54.6586C123.236 53.6421 123.236 53.6421 123.363 51.8641L120.695 51.9488C122.071 53.1559 121.373 54.2355 120.695 55.3998C120.208 56.247 119.869 57.1574 119.34 58.3013C121.203 57.6233 121.944 58.9997 122.833 59.9529C124.273 61.4771 125.608 63.1073 126.921 64.7385C127.351 65.379 127.734 66.0517 128.064 66.75C128.423 67.3637 128.064 67.6818 127.598 68.211L120.484 60.9265L120.187 61.0754C120.187 61.265 120.187 61.5617 120.293 61.6677C121.86 62.9809 121.669 64.4632 120.588 66.1566L119.086 64.8863C118.726 66.0088 119.806 66.2841 120.081 67.1945L119.382 68.8032C119.128 69.3334 118.895 69.8625 118.641 70.4131L117.265 70.0746C118.726 72.4031 117.265 73.9701 116.312 75.8124L114.533 74.2454C114.749 75.4214 115.301 76.5097 116.121 77.3794C117.532 79.4284 119.058 81.3938 120.695 83.266C121.1 83.6313 121.348 84.14 121.388 84.6841C121.427 85.2293 121.255 85.767 120.907 86.1879L120.293 87.1412C117.871 84.8801 115.634 82.4306 113.602 79.8139L112.226 82.9265L113.792 81.8254C113.927 81.8618 114.056 81.9186 114.173 81.9957L118.852 88.4961C119.424 89.2791 119.086 89.8296 118.217 90.4647L112.543 83.9429L112.204 84.1979C113.811 87.0501 115.57 89.8146 117.476 92.4762L116.524 93.5141L110.531 87.1615C110.679 88.9406 112.098 89.8724 112.924 91.1642C113.75 92.4559 114.894 93.768 115.867 95.0179C106.614 110.454 96.2172 124.874 82.369 136.605C82.8796 136.443 83.3698 136.222 83.83 135.948C85.2995 134.901 86.7131 133.777 88.065 132.582C90.4789 130.464 92.8927 128.135 95.0949 125.72C97.6358 122.926 99.9862 119.961 102.358 116.996C104.729 114.033 106.804 111.513 108.838 108.527C110.87 105.541 113.072 101.963 115.189 98.681C116.375 96.8602 117.646 95.1025 118.726 93.2388C119.806 91.3752 120.441 89.8724 121.288 88.1994C122.495 85.722 123.828 83.3292 124.888 80.7886C125.946 78.2469 126.539 75.9602 127.365 73.5471C128.614 69.9472 129.99 66.4105 131.091 62.7688C132.426 58.3859 133.632 53.9388 134.691 49.4714C135.297 46.6769 135.735 43.8482 136.005 41.0013C136.258 38.7359 136.216 36.4278 136.343 33.7383L137.55 34.8608C137.444 34.0135 137.359 33.4212 137.253 32.7432L139.096 32.1713C139.308 34.2888 139.54 36.0893 139.646 37.9733C139.552 41.1812 139.19 44.3752 138.567 47.5231C138.142 50.9752 137.401 54.363 136.83 57.814C136.83 58.4074 136.385 59.0629 137.084 59.6777C137.894 58.4684 138.395 57.0803 138.545 55.6333C139.117 51.8009 139.434 47.9472 140.154 44.1567C140.64 40.7988 140.81 37.4035 140.663 34.0135C140.701 33.3795 140.793 32.7486 140.938 32.1295C141.912 32.1295 141.827 32.6801 141.827 33.1674C141.827 34.6069 141.827 36.0465 141.827 37.4014C141.837 38.1126 141.908 38.8205 142.039 39.5189C142.412 41.0795 142.353 42.7118 141.87 44.2413C141.579 45.3895 141.451 46.5719 141.488 47.7566C141.361 50.234 141.298 52.7317 141.17 55.2305C141.17 55.9932 141.17 56.925 139.837 56.7343C140.167 57.2388 140.424 57.7872 140.599 58.3645C140.567 58.8829 140.446 59.3917 140.239 59.8683C138.884 64.3144 137.676 68.8247 136.005 73.2075C135.051 75.8756 134.416 78.6079 133.59 81.2749C132.595 84.4517 131.091 87.4796 129.821 90.5708C129.567 91.2059 129.271 91.8411 128.889 92.6883C129.303 92.5533 129.678 92.3209 129.984 92.0125C130.289 91.7029 130.516 91.3248 130.647 90.9103C132.701 87.0223 134.334 82.9265 135.517 78.6925C136.135 76.4893 136.885 74.3257 137.761 72.2125C138.164 71.1114 138.608 70.095 139.053 68.8461C139.434 68.9928 139.801 69.1696 140.154 69.3752C142.271 70.7301 144.58 72.1493 146.803 73.6103C147.904 74.2882 147.926 74.2668 147.375 75.9398C144.666 74.7145 142.049 73.2996 139.54 71.7048C139.921 72.9119 139.9 72.9119 142.886 75.008C144.114 75.8552 145.405 76.6596 146.74 77.5272L146.465 79.4337C143.415 78.6283 141.404 75.9816 138.207 75.7492C140.557 77.358 142.843 79.0096 145.236 80.5551C145.457 80.6451 145.653 80.7865 145.808 80.9675C145.963 81.1485 146.074 81.3638 146.129 81.5951C146.185 81.8265 146.185 82.0686 146.129 82.2999C146.074 82.5313 145.963 82.7466 145.808 82.9265L140.832 80.4073C141.383 81.6187 142.302 82.6255 143.457 83.2874C143.775 83.5199 144.178 83.6259 144.516 83.838C145.575 84.5363 145.575 84.5792 144.898 86.2094C143.246 85.2143 141.594 84.2611 139.9 83.266C139.9 84.3885 140.641 85.0654 144.41 87.8609C144.438 88.0923 144.438 88.3269 144.41 88.5593C144.284 88.7735 144.143 88.9792 143.987 89.173C142.356 88.6868 141.51 87.0566 139.498 86.6956C140.348 87.9209 141.375 89.0134 142.547 89.9356C143.563 90.7197 143.542 90.74 142.865 92.3713L137.973 89.1944C138.185 89.8296 138.207 90.2323 138.418 90.423C139.498 91.3548 140.535 92.2438 141.742 93.1328C142.399 93.663 142.737 94.1921 141.87 94.9751L139.519 93.302L139.137 93.7048L141.382 96.4789C141.382 96.9662 141.255 97.4525 141.15 98.109L143.563 97.4525C143.255 96.4306 143.227 95.3446 143.484 94.3088C143.741 93.272 144.273 92.3252 145.024 91.5658C145.024 91.3966 145.342 91.2274 145.321 91.0795C144.876 88.5593 146.465 86.4632 146.803 84.1133C147.142 81.7622 147.608 80.0046 148.052 77.9513C148.133 77.4297 148.29 76.9231 148.518 76.4475C149.55 74.0676 150.262 71.5613 150.635 68.9939C151.145 66.8421 151.542 64.6657 151.821 62.4721C152.109 59.6584 152.237 56.8307 152.202 54.0031C152.202 49.768 151.949 45.3841 151.758 41.0645C151.758 39.6463 151.483 38.2486 151.313 36.8305C152.372 36.8305 152.478 37.5288 152.562 38.0579C153.099 42.2084 153.614 46.3588 154.108 50.5092C154.098 50.7063 154.098 50.9045 154.108 51.1015C154.505 54.0695 154.661 57.0653 154.574 60.059C154.545 60.4585 154.612 60.8601 154.771 61.2286C154.929 61.597 155.174 61.9216 155.484 62.1765C156.033 60.7455 156.172 59.1914 155.887 57.6865C155.675 53.8756 155.421 50.0851 155.167 46.2956C155.167 45.9775 155.167 45.6594 155.167 45.1731H157.517C157.756 47.9868 158.368 50.7577 159.338 53.4097H159.741C159.741 52.118 159.847 50.8048 159.91 49.1747C161.152 52.0023 161.836 55.0442 161.921 58.1321C160.694 59.5084 159.423 57.4113 157.983 58.1321C159.169 59.487 160.842 58.9783 162.218 59.6562C162.79 63.5314 163.382 67.4697 163.976 71.5356L161.858 71.7262L161.731 72.0861L163.51 72.7844C163.51 73.8009 163.51 74.902 163.51 76.0876H161.16C161.329 77.6964 162.769 76.9349 163.277 77.6761C163.107 78.2898 162.959 78.9678 162.747 79.6876C164.336 79.92 163.848 78.3744 164.589 77.9085L169.503 78.2052C169.333 79.3277 169.184 80.3227 168.994 81.6358L163.828 80.8732C164.463 82.0589 165.394 81.9529 166.135 82.1007C166.876 82.2496 167.808 82.3556 168.867 82.5248C168.634 83.5413 168.443 84.4089 168.189 85.4467L165.246 85.0023C165.775 86.3357 166.982 85.8495 167.576 86.4632C167.977 87.9027 167.088 88.9192 166.263 90.1049L164.823 89.8939C164.772 89.9806 164.729 90.0727 164.696 90.1691L166.284 91.3548L164.611 96.9865L161.265 96.225C162.027 97.1986 163.382 97.8338 166.644 98.8084C166.278 102.003 165.307 105.1 163.785 107.934C162.083 111.552 159.951 114.951 157.433 118.056C156.435 119.54 155.577 121.114 154.871 122.757C156.988 123.964 159.973 123.646 161.986 125.636C161.52 126.186 161.074 126.652 160.673 127.161L160.63 127.097ZM128.551 64.2083L121.351 57.2634C121.732 56.4376 122.114 55.5904 122.537 54.7229C124.379 55.5487 124.168 56.8404 123.659 58.6184L125.205 57.708L129.631 62.9166C129.631 63.2133 129.355 63.7638 129.143 64.3358C128.94 64.3304 128.738 64.2876 128.551 64.2083ZM125.671 56.3316C126.073 55.3794 126.391 54.5954 126.73 53.8124C127.753 54.5568 128.498 55.6226 128.848 56.8404C128.95 57.0739 129.102 57.2827 129.292 57.4541C129.673 57.8568 130.35 58.1953 130.413 58.6184C130.402 59.4527 130.266 60.2807 130.012 61.0754L125.671 56.3316ZM130.329 52.7317C131.98 53.9388 132.002 54.0031 131.345 55.9717C129.567 55.1674 129.503 54.9981 130.329 52.7317ZM128.742 53.3251C127.281 52.2026 127.281 52.2026 128.085 50.0433C129.863 50.9537 128.805 52.1608 128.742 53.3251ZM131.282 47.7769C131.629 47.9858 131.932 48.261 132.173 48.5877C132.413 48.9144 132.587 49.285 132.683 49.6791C132.78 50.0722 132.798 50.4814 132.735 50.882C132.672 51.2826 132.531 51.666 132.32 52.0119C131.925 51.8524 131.575 51.6007 131.296 51.2793C131.018 50.9569 130.819 50.5735 130.719 50.16C130.617 49.7466 130.615 49.315 130.713 48.9005C130.811 48.487 131.006 48.1014 131.282 47.7769ZM129.821 48.8994C128.254 48.773 128.635 47.2906 127.704 46.7819C126.97 46.2753 126.263 45.7311 125.586 45.1517L127.026 43.0342C128.276 43.8386 127.576 45.1517 128.022 46.0835L129.037 45.427C130.795 46.3802 129.609 47.6923 129.884 48.8994H129.821ZM125.374 42.8435C125.177 43.2955 124.951 43.7336 124.697 44.1567C124.316 43.5215 123.787 43.0127 123.893 42.7161C124.354 40.8545 125.175 39.1001 126.306 37.5502C126.433 38.1854 126.666 38.5871 126.539 38.8205C126.045 40.123 125.676 41.4704 125.438 42.8435H125.374ZM128 39.837C128.783 40.7688 128.317 41.2348 127.725 41.7007C127.873 41.1705 127.936 40.6414 128.064 39.837H128ZM131.727 44.4105C133.632 45.7236 133.632 45.7236 133.209 47.2906C132.045 46.528 131.134 45.8297 131.727 44.4105ZM130.224 44.4105C129.503 43.4369 130.012 42.8435 130.224 41.8485C130.944 42.971 130.478 43.5001 130.224 44.4105ZM133.018 39.3282C134.967 40.3029 134.098 41.7853 133.992 43.1402C132.045 42.293 132.002 42.0606 133.018 39.3497V39.3282ZM130.901 40.8106C129.821 39.4557 130.901 38.4392 130.901 37.1475C131.769 38.4821 131.769 38.5667 130.859 40.832L130.901 40.8106ZM128.783 38.6931C128.106 37.1261 129.143 36.4063 129.186 35.4113L129.843 35.602C129.461 36.597 129.165 37.5288 128.72 38.7777L128.783 38.6931ZM126.984 36.7876C126.772 36.3646 126.666 36.2371 126.687 36.1525C126.962 35.4113 127.259 34.6701 127.682 33.5905C128.106 35.1575 127.301 35.814 126.921 36.8723L126.984 36.7876ZM134.289 35.0728C134.289 35.7926 134.289 36.5124 134.289 37.4228C133.4 36.5552 133.4 36.5552 134.225 35.1575L134.289 35.0728ZM131.473 35.6448C131.621 34.6487 131.748 33.8025 131.876 32.7861C132.743 34.4795 132.701 34.7547 131.41 35.7294L131.473 35.6448ZM130.266 33.7383H129.758C129.758 33.0614 129.949 32.3834 130.075 31.6208C130.922 32.4466 130.096 33.1245 130.202 33.8229L130.266 33.7383ZM120.229 72.8476C119.979 72.6302 119.808 72.3346 119.742 72.009C119.677 71.6834 119.722 71.346 119.869 71.0482C120.187 70.3285 120.419 69.5873 120.885 68.317C122.029 69.7779 123.003 70.879 123.765 71.9801C124.219 72.5788 124.644 73.2011 125.036 73.8427C125.755 75.008 125.036 75.9602 124.4 77.1041L120.229 72.8476ZM123.765 79.5601C123.447 80.5348 123.13 81.487 122.706 82.8215L116.545 76.469C117.18 75.8124 117.646 75.3679 118.069 74.8805C118.492 74.3932 118.81 73.9701 119.234 73.441C121.058 75.2287 122.587 77.2948 123.765 79.5601ZM125.057 71.2389C124.548 70.8147 124.125 70.3285 123.618 69.9257C121.88 68.5494 120.907 67.0456 122.812 64.8017L126.433 69.0367C127.196 69.9472 126.75 70.8576 126.327 72.0015C125.861 71.7466 125.417 71.5142 125.057 71.2389ZM168.042 50.4246C170.539 50.4246 170.794 50.6999 171.535 54.0234L163.044 53.5158C162.875 52.3301 162.684 51.2504 162.536 50.2125C162.936 49.9844 163.38 49.8441 163.839 49.8012C164.297 49.7573 164.76 49.8109 165.196 49.9598C165.632 50.1076 166.031 50.3464 166.369 50.6603C166.706 50.973 166.973 51.3554 167.152 51.7795L168.042 50.4246ZM171.874 50.8895L173.187 50.6356L174.965 54.2569H172.848C172.466 52.8806 172.191 51.9905 171.874 50.8895ZM176.109 52.7317C175.219 51.8427 175.346 51.2076 176.109 50.6142C176.384 51.44 176.384 51.44 176.024 52.7317H176.109ZM179.623 51.9905C180.089 54.108 180.089 54.1081 178.65 54.1081C178.374 53.2619 177.867 52.3086 179.539 51.9905H179.623ZM171.514 59.3596L163.679 58.8304C163.553 57.3266 163.404 55.9932 163.256 54.363L172.212 54.9135C172.509 55.6483 172.6 56.4505 172.478 57.2335C172.355 58.0164 172.022 58.7512 171.514 59.3596ZM176.088 57.5173C176.088 58.1107 176.088 58.6826 176.088 59.3596C175.692 59.381 175.297 59.381 174.902 59.3596C173.187 59.2117 173.144 59.1057 173.292 57.242C173.337 56.5373 173.337 55.8303 173.292 55.1245C175.749 55.2305 175.897 55.3794 176.003 57.5173H176.088ZM171.514 64.2512C171.048 64.2512 170.582 63.5528 170.01 63.0655C169.609 63.9331 168.718 63.9759 167.723 63.7853C166.728 63.5946 165.415 63.4254 164.166 63.2347C163.976 62.1765 163.785 61.1172 163.573 60.1222C165.009 59.7376 166.521 59.7376 167.957 60.1222C169.312 60.1222 170.667 60.5035 172.043 60.6941L172.784 62.5567H173.187C173.335 61.943 173.483 61.3507 173.61 60.8002C173.742 60.7209 173.884 60.6641 174.033 60.6299C176.807 60.8848 176.913 61.0754 176.151 64.505C174.563 64.505 174.563 64.505 173.716 63.5528C173.023 63.8999 172.28 64.1355 171.514 64.2512ZM173.101 68.5922L170.264 68.7186C170.434 67.5758 170.582 66.4747 170.773 65.183L173.101 65.5215V68.5922ZM174.796 65.8182L176.341 66.3258C176.341 67.2159 176.341 68.0417 176.341 69.0582L174.457 68.9307C174.414 67.8511 174.563 66.856 174.711 65.8182H174.796ZM166.199 68.1049C165.267 67.9357 164.632 67.5544 164.717 66.4319C164.655 65.7175 164.534 65.0095 164.357 64.3144L169.143 65.0138C169.213 65.2269 169.263 65.4465 169.29 65.6693C169.078 68.422 168.825 68.634 166.115 68.1049H166.199ZM171.09 69.7565C172.678 70.095 174.308 70.2439 176.024 70.4977C176.024 71.768 175.875 72.6152 175.812 73.7163L170.773 72.5092C168.852 72.8787 166.866 72.6795 165.055 71.9372C165.055 70.9004 165.055 69.8197 165.055 68.9725C167.639 68.8247 168.337 69.1428 168.888 70.773C169.109 70.4249 169.429 70.1496 169.805 69.9804C170.181 69.8111 170.598 69.7554 171.005 69.8197L171.09 69.7565ZM172.551 76.9563C172.44 77.0023 172.322 77.0259 172.202 77.0259C172.082 77.0259 171.963 77.0023 171.852 76.9563C171.752 76.8931 171.665 76.8106 171.6 76.711C171.534 76.6125 171.49 76.5011 171.471 76.3843C171.471 75.6217 171.471 74.8591 171.62 74.0976L172.086 73.7795C172.446 74.0762 173.101 74.3729 173.101 74.6685C173.011 75.46 172.797 76.2312 172.466 76.9563H172.551ZM174.923 75.0498C175.749 76.2997 175.749 76.4261 174.605 77.2948C174.627 76.5953 174.733 75.8756 174.839 75.0498H174.923ZM169.884 77.1673L164.865 76.7014C164.865 75.4943 164.971 74.4575 165.034 73.229L170.349 74.013C170.116 74.9234 169.968 75.9184 169.798 77.1459L169.884 77.1673ZM172.191 80.9793C172.191 81.6144 171.789 82.1007 170.815 81.593C171.048 80.5765 171.302 79.4755 171.577 78.3326C172.89 79.137 172.171 80.1321 172.106 80.9579L172.191 80.9793ZM174.308 79.4969C175.622 80.0688 174.733 81.1485 175.071 82.1435C173.504 81.6776 173.504 81.6776 174.161 79.4755L174.308 79.4969ZM174.754 83.7319C174.457 84.6209 174.118 85.616 173.738 86.6956L169.756 85.828C169.905 85.149 170.089 84.4774 170.307 83.8166C170.434 83.4781 170.794 82.9908 170.985 83.0325C171.369 83.1675 171.708 83.4096 171.958 83.7319C172.128 83.9012 172.149 84.1764 172.276 84.4935C173.017 84.3457 173.229 82.7155 174.605 83.7105L174.754 83.7319ZM171.323 87.6071C170.857 88.7285 170.413 89.851 169.926 91.0581L168.232 90.8043C167.851 87.183 168.422 86.5692 171.174 87.5857L171.323 87.6071ZM169.904 96.0761L171.514 96.7541C171.111 97.7492 170.921 98.7442 169.29 98.2783C169.396 97.5585 169.523 96.9233 169.756 96.0558L169.904 96.0761ZM166.707 97.6217C166.601 97.5274 166.516 97.4096 166.462 97.2768C166.406 97.1451 166.381 97.0026 166.39 96.8602C166.39 95.7377 166.94 95.5042 168.507 95.9497C168.242 96.5003 167.938 97.0304 167.596 97.5371C167.452 97.656 167.275 97.7256 167.088 97.7363C166.902 97.7481 166.717 97.7009 166.559 97.6013L166.707 97.6217ZM164.145 123.032C163.573 124.133 163.213 124.493 162.281 123.984C160.911 123.243 159.497 122.585 158.046 122.016C157.391 121.74 157.496 121.444 157.729 121.062L164.145 123.032ZM165.924 120.639C164.886 122.122 164.208 122.163 162.218 120.893C163.256 119.305 163.848 119.263 165.924 120.639ZM166.728 116.912L168.042 117.336C168.042 117.336 168.042 117.336 168.38 117.59L167.321 119.135L164.251 118.331C165.289 116.404 165.289 116.404 166.728 116.891V116.912ZM171.196 114.287L169.396 116.404L166.41 115.197C167.47 112.889 168.02 112.783 171.196 114.287ZM173.166 111.28L171.789 113.016L168.571 111.872L169.672 109.946C170.945 110.004 172.168 110.464 173.166 111.259V111.28ZM175.283 107.342L173.97 109.819L172.106 109.289C171.62 109.12 171.133 108.887 170.667 108.697C171.916 105.944 172.34 105.817 175.389 107.32L175.283 107.342ZM177.21 103.996L176.3 105.944L174.521 105.457L173.081 104.991C173.758 103.042 174.796 102.789 177.316 103.974L177.21 103.996ZM179.137 99.7606C178.671 100.714 178.332 101.434 177.887 102.301L174.774 101.581L176.066 98.9777L179.137 99.7606ZM180.323 96.9233L179.328 98.7656C178.968 97.5167 179.687 97.1986 179.92 96.6481L180.323 96.9233ZM182.715 90.9949L179.518 90.5076C178.818 90.3758 178.111 90.2837 177.401 90.2323C176.851 90.273 176.315 90.409 175.812 90.635C175.812 90.635 175.812 91.2488 175.812 91.312C176.406 91.6718 177.252 92.3284 177.633 92.1378C179.179 91.3548 180.513 92.1378 181.868 92.3498C181.636 94.1278 181.636 94.1278 180.64 95.1443C179.751 94.4459 180.64 93.3877 180.089 92.6037C178.734 92.4345 179.073 93.8954 178.311 94.4888H176.194C175.643 94.4888 174.986 94.4888 175.134 95.2932C175.23 95.5117 175.371 95.7077 175.551 95.8651C175.73 96.0226 175.943 96.1382 176.172 96.2036C176.813 96.2786 177.458 96.2786 178.099 96.2036C177.972 97.8552 177.93 97.8766 176.766 97.7074L173.292 97.3464C173.292 98.575 173.292 98.575 174.308 99.464C174.139 99.8881 174.055 100.523 173.716 100.799C173.26 101.101 172.891 101.518 172.65 102.01C172.408 102.5 172.301 103.048 172.34 103.593C172.34 103.974 171.556 104.503 171.048 104.8C170.597 104.946 170.124 105.01 169.65 104.991C168.952 106.198 170.116 106.219 170.519 106.748L169.65 108.168L167.279 107.786C167.026 107.813 166.778 107.871 166.538 107.955C166.538 108.485 166.538 109.014 166.665 109.628L168.549 109.416C168.512 109.833 168.388 110.237 168.183 110.602C167.978 110.967 167.7 111.284 167.364 111.534C166.622 111.343 165.669 110.475 165.034 111.534C164.399 112.592 165.606 112.783 166.284 113.355C165.669 114.328 165.055 114.9 163.954 114.625C163.705 114.562 163.442 114.562 163.192 114.625C163.029 114.649 162.877 114.717 162.75 114.822C162.624 114.927 162.529 115.065 162.476 115.221C162.424 115.377 162.415 115.544 162.452 115.704C162.488 115.864 162.568 116.011 162.684 116.129C162.768 116.261 162.895 116.358 163.044 116.404C163.341 116.531 163.658 116.616 163.997 116.743C163.722 117.844 163.15 118.182 162.027 117.78C160.905 117.378 160.714 117.421 160.482 118.882L162.155 119.389C161.117 121.656 159.656 119.771 158.068 120.046C158.296 119.457 158.565 118.884 158.872 118.331C160.185 116.467 161.689 114.71 162.811 112.741C164.378 110.01 165.691 107.171 167.045 104.271C167.22 103.645 167.348 103.009 167.427 102.366C167.671 101.557 167.983 100.771 168.359 100.014C168.677 99.3793 169.206 99.5282 169.778 100.014C169.778 101.497 168.655 102.556 168.105 103.974L169.396 104.165C170.397 102.999 171.185 101.666 171.725 100.227C172.026 98.8331 172.203 97.416 172.255 95.9915L169.227 94.3185L167.11 94.8272C167.342 93.663 167.511 92.879 167.745 91.7993L174.097 93.9168C174.097 92.5405 174.097 92.5405 171.302 91.312L172.149 87.9027C173.123 87.7121 173.441 88.1576 173.292 89.0681C173.144 89.9785 172.615 90.7829 173.292 91.7147C174.774 91.2906 174.288 89.851 174.69 89.0681C177.602 88.5325 180.574 88.4104 183.52 88.7082C183.223 89.4065 182.991 90.1691 182.715 90.9949ZM184.218 84.9594C184.07 85.8698 183.964 86.6538 183.816 87.5857L182.101 87.0769C182.228 86.3154 182.313 85.616 182.462 84.727L184.218 84.9594ZM184.536 83.6045L182.821 83.4567C183.138 81.6776 183.138 81.6776 184.939 81.6358L184.536 83.6045ZM180.555 83.1171C180.28 83.1171 179.793 82.6512 179.835 82.4402C179.835 81.5298 180.64 81.6562 181.53 81.8051C181.53 82.6309 181.487 83.266 180.513 83.1171H180.555ZM178.437 82.7573L176.32 83.6677L178.162 86.0819C179.454 86.3357 179.094 83.9644 180.83 84.6423C180.724 85.2989 180.619 86.0187 180.513 86.7599L175.283 87.0769C175.283 86.8231 175.114 86.5907 175.283 86.4632C176.603 83.0465 177.16 79.3823 176.913 75.7278C176.881 75.1419 176.881 74.556 176.913 73.9701C177.295 71.0482 177.696 68.1263 178.12 65.2248C178.177 64.7257 178.352 64.2469 178.628 63.8281C178.628 66.1148 179.709 68.2527 178.819 70.6455C178.553 71.8944 178.603 73.1904 178.968 74.4146C179.11 74.8045 179.169 75.2201 179.14 75.6346C179.111 76.048 178.994 76.4518 178.798 76.8181C178.602 77.1834 178.331 77.5036 178.003 77.7575C177.674 78.0113 177.296 78.1923 176.892 78.2898C177.485 78.6497 177.93 78.7771 178.12 79.0727C178.311 79.3694 178.48 80.0892 178.311 80.2381C177.336 81.0639 177.527 81.9111 178.311 82.7573H178.437ZM182.482 70.2224C182.948 72.9751 182.863 73.1025 180.767 72.9965C180.429 70.879 180.429 70.879 182.355 70.2224H182.482ZM185.319 80.1535L179.984 80.4073C179.984 79.6233 180.11 79.137 180.174 78.2898L185.404 77.3579C185.319 78.4173 185.256 79.2002 185.193 80.1535H185.319ZM180.682 76.9135C179.941 74.7959 180.11 74.6267 182.566 74.4575V76.3843L180.682 76.9135ZM185.87 76.2997H183.752C184.238 74.3772 184.368 72.3817 184.133 70.4131C184.133 69.3538 184.133 69.3538 185.785 69.1846C185.7 71.5559 185.722 73.8641 185.743 76.2997H185.87ZM180.682 69.3752C180.535 68.4434 180.407 67.639 180.259 66.75L182.376 65.7967C182.376 66.4319 182.588 66.8764 182.631 67.3209C182.673 67.7664 182.631 68.0835 182.631 68.5494L180.682 69.3752ZM185.743 66.6857C185.743 67.8296 184.981 67.8714 184.027 67.9775C183.869 67.383 183.841 66.7596 183.947 66.1523C184.053 65.545 184.29 64.9688 184.642 64.4632L182.842 63.4671L180.28 65.0556C180.28 64.0177 180.153 63.3622 180.089 62.4303L185.171 60.5667C185.319 62.832 185.489 64.7589 185.616 66.6857H185.743ZM185.128 59.487L179.857 61.1386C179.857 60.3546 179.857 59.6777 179.666 59.0211L181.339 58.4277L182.016 59.8887C182.291 58.9997 182.462 58.492 182.651 57.92L184.515 57.5387C184.599 58.1321 184.79 58.7876 185.002 59.487H185.128ZM179.221 56.8821C178.797 56.0146 179.412 55.6118 180.301 55.3366L181.085 56.819C180.153 57.2217 179.539 57.7722 179.094 56.8821H179.221ZM184.133 53.6004C184.133 54.4262 184.133 55.252 184.133 56.2684L182.016 56.6069C181.893 56.4087 181.816 56.1849 181.792 55.9524C181.769 55.719 181.8 55.4844 181.881 55.2659C181.963 55.0463 182.094 54.8492 182.264 54.6886C182.435 54.529 182.639 54.4101 182.863 54.3415C183.253 54.1188 183.628 53.8713 183.986 53.6004L181.381 53.4526C181.254 52.7114 181.106 52.0334 180.979 51.335L182.525 50.7631L184.007 53.6421L184.133 53.6004ZM182.101 46.9093C181.847 49.8312 181.465 50.1697 177.867 50.6785C177.633 50.0433 177.401 49.3867 177.104 48.5609C177.994 48.3189 178.87 48.0297 179.729 47.6923C180.407 47.3753 181.085 46.6973 182.101 46.9093ZM174.796 48.2225C174.796 47.5659 174.944 47.206 175.008 46.8247H176.024C176.278 45.9143 176.024 44.6012 177.633 44.4533C177.845 44.9396 178.099 45.4902 178.417 46.2528L174.796 48.2225ZM181.55 45.427L179.729 46.2099C179.479 45.608 179.315 44.9739 179.243 44.3259C179.243 43.86 179.814 43.4787 180.364 42.7375C180.788 43.7754 181.127 44.4105 181.53 45.427H181.55ZM179.984 41.8903L178.459 42.6111C178.036 41.8056 177.612 41.0441 177.231 40.3029C179.031 38.7991 179.243 38.9266 179.984 41.8903ZM178.65 37.9316L176.786 38.948L175.749 36.6816L177.718 35.4541C178.099 36.3646 178.353 37.0629 178.692 37.9316H178.65ZM177.336 33.1245C177.189 34.1828 176.681 34.8822 175.812 34.9668C175.346 34.9668 174.817 34.4377 174.33 34.1196C175.092 32.6372 176.13 32.8493 177.379 33.1245H177.336ZM175.219 31.3037L173.589 32.7015L173.187 32.4894C173.187 32.1295 173.187 31.6636 173.356 31.4301C173.525 31.1977 174.373 30.4993 175.262 31.3037H175.219ZM174.013 29.5878L172.678 30.4351C171.916 29.8213 171.916 29.2708 172.678 28.8049C173.441 28.339 173.632 28.8895 174.013 29.5878ZM160.926 15.4861C164.629 18.4058 168.008 21.7133 171.005 25.3539C171.005 25.3539 171.239 25.5649 171.239 25.6709C171.239 25.777 171.239 26.4549 171.239 26.8566C170.836 26.8566 170.264 26.8566 170.073 26.6242C169.248 25.6077 168.571 24.5066 167.808 23.4056C167.406 22.8336 166.982 22.1985 165.818 22.5584C167.115 24.8762 168.588 27.0922 170.222 29.1862L167.787 30.3719C166.644 28.3818 165.669 26.4549 164.42 24.5698C163.9 23.8972 163.327 23.2663 162.705 22.6858C161.583 21.5205 160.588 20.293 159.359 19.1705C159.064 18.9124 158.87 18.5579 158.811 18.1701C158.753 17.7822 158.835 17.3862 159.042 17.053L165.161 21.8386C165.294 21.3802 165.269 20.8896 165.088 20.4473C164.908 20.006 164.582 19.6375 164.166 19.403C162.557 18.0059 160.969 16.5872 159.381 15.1686L159.698 14.7662C160.126 14.9733 160.537 15.2141 160.926 15.4861ZM154.574 14.131C154.683 14.2945 154.755 14.4801 154.784 14.6744C154.813 14.8688 154.798 15.067 154.741 15.2552C154.685 15.4433 154.587 15.6166 154.456 15.7627C154.324 15.9088 154.163 16.024 153.982 16.1002C153.812 17.3707 155.484 18.2173 154.871 19.5304L153.304 20.2502C153.917 21.0974 152.774 21.0546 152.753 21.2881C152.786 21.8772 152.937 22.4534 153.197 22.9814C152.096 24.21 151.673 21.6479 150.466 22.6012L151.186 24.3578L150.212 25.4588L146.994 23.3424H146.888C146.4 24.0407 146.888 24.4435 147.354 24.9083C147.82 25.3742 147.586 25.8401 146.76 26.1154C146.316 25.4588 145.83 24.7391 145.173 23.7226L146.888 23.3424C146.932 23.05 147.076 22.7822 147.297 22.5851C147.518 22.3881 147.799 22.2734 148.095 22.2617C149.725 22.071 150.614 20.6947 151.843 19.8903C152.192 19.5797 152.41 19.1491 152.456 18.6832C152.624 17.5904 152.71 16.4862 152.711 15.3803C152.637 14.8821 152.416 14.4175 152.076 14.0463C151.165 12.8182 150.212 11.6112 149.196 10.2772C150.383 10.2764 151.539 10.6479 152.505 11.3391C153.47 12.0304 154.194 13.0068 154.574 14.131ZM144.22 9.26081C145.681 9.43025 146.337 10.7007 147.248 11.59C148.063 12.4614 148.833 13.3731 149.556 14.3216C149.469 14.4507 149.369 14.5713 149.259 14.6815C147.81 14.2338 146.532 13.3548 145.596 12.1617C144.837 10.8591 143.748 9.77857 142.441 9.02795C141.877 8.61773 141.34 8.17216 140.832 7.69393C142.78 7.14339 143.013 9.11257 144.22 9.26081ZM137.867 4.68709C138.029 4.84261 138.146 5.03872 138.206 5.25476C138.264 5.4708 138.266 5.69894 138.207 5.91529C138.036 6.23287 137.381 6.38111 136.935 6.33869C136.491 6.29639 136.343 5.89408 136.068 5.61882L133.654 3.28965C135.517 3.81898 136.724 4.17897 137.952 4.68709H137.867ZM72.4381 117.674C71.7156 119.185 70.8203 120.606 69.7701 121.909L69.4102 121.74C69.4113 121.394 69.4685 121.05 69.5795 120.724C71.3794 116.721 73.2215 112.762 74.9791 108.76C75.8261 106.854 76.4824 104.885 77.2235 102.937C77.4725 102.128 77.8061 101.347 78.2188 100.608C80.0821 97.8338 80.8867 94.4888 83.1313 91.9257C83.776 89.7985 84.8822 87.8395 86.3709 86.1879C88.4884 83.266 89.6954 79.8354 91.9187 77.0409C94.9466 73.2075 97.784 69.2274 100.685 65.289C101.172 64.6539 101.638 64.0819 102.464 64.0605C103.141 64.6325 102.718 65.0555 102.464 65.4583C99.8804 68.7401 97.2547 71.9801 94.7561 75.3251C93.5915 76.8706 92.6386 78.6283 91.6858 80.2595C91.2199 80.9793 90.6906 81.6144 90.2036 82.376C87.7897 85.9127 85.9687 89.745 83.6606 93.4081C81.4622 97.114 79.5441 100.978 77.9223 104.969C76.0589 109.12 74.238 113.398 72.4381 117.674ZM153.113 110.56C151.14 114.975 148.377 118.994 144.961 122.417C144.538 122.82 144.092 123.158 143.648 123.54L143.203 123.223C143.563 122.651 143.903 122.057 144.283 121.507C145.977 118.945 147.82 116.467 149.365 113.842C151.377 110.411 153.134 106.833 155.061 103.254C156.225 101.211 157.142 99.0355 157.792 96.7755C158.338 95.1068 159.047 93.497 159.91 91.9685C160.901 90.65 161.383 89.0188 161.265 87.3736C162.472 87.5428 162.387 88.3686 162.176 89.0038C161.715 90.2944 161.155 91.5465 160.503 92.7515C159.507 94.4791 158.927 96.4146 158.809 98.4057C158.714 99.2412 158.447 100.049 158.026 100.777C156.438 104.039 154.68 107.256 153.113 110.56ZM102.188 69.206C102.675 70.8147 101.659 71.6202 101.13 72.5724C99.9862 74.5635 98.7369 76.469 97.4876 78.3744C96.2383 80.2799 94.7137 82.1435 93.4856 84.1336C91.3682 87.5214 88.5731 90.4862 87.3027 94.3185C87.2772 94.4513 87.2189 94.5745 87.1332 94.6784C84.4864 97.008 84.1476 100.545 82.5595 103.424C82.4786 103.6 82.3635 103.759 82.2207 103.89C82.2207 103.89 81.9878 103.89 81.5855 103.89C81.6357 102.225 82.1251 100.604 83.0042 99.1887C84.5288 96.1404 86.0322 93.091 87.7897 90.2109C89.5471 87.3318 91.3682 85.1501 93.168 82.5248C94.5656 80.4073 95.8572 78.2898 97.2547 76.1723C98.6521 74.0547 100.071 72.0861 101.49 70.0318C101.638 69.8197 101.828 69.3538 102.188 69.206ZM102.294 120.639C102.406 120.195 102.577 119.767 102.802 119.369C104.92 116.51 107.206 113.693 109.282 110.899C111.357 108.103 113.051 105.245 114.978 102.429C116.481 100.311 118.048 98.0673 119.573 95.8651C119.89 95.3992 120.187 94.869 120.484 94.3828L121.944 91.9053L122.558 92.1592C122.342 93.0803 122.044 93.98 121.669 94.8487C121.013 96.0558 120.144 97.1354 119.403 98.2997C118.662 99.4639 118.197 100.417 117.519 101.475C116.841 102.535 115.804 104.102 114.894 105.372C113.982 106.642 112.776 108.357 111.59 109.735C111.447 109.85 111.329 109.995 111.242 110.158C111.157 110.32 111.104 110.499 111.088 110.682C111.073 110.867 111.093 111.051 111.151 111.227C111.208 111.402 111.299 111.564 111.42 111.703C109.43 112.084 108.752 113.715 107.8 115.049C106.847 116.383 106.212 117.442 105.364 118.628C105.018 119.156 104.567 119.607 104.039 119.953C103.511 120.299 102.917 120.532 102.294 120.639ZM99.1816 115.006C103.734 108.443 107.228 101.18 112.098 94.8487L112.437 94.9965C112.448 95.0522 112.448 95.11 112.437 95.1657C112.468 95.291 112.468 95.4217 112.437 95.547C111.764 97.1011 111 98.6146 110.15 100.079C106.741 105.329 103.798 110.92 99.5627 115.557C99.4568 115.684 99.2239 115.705 98.9274 115.832C98.9545 115.523 99.0408 115.221 99.1816 114.943V115.006ZM126.709 98.9134C125.734 100.29 124.591 101.624 123.765 103.022C123.278 103.763 123.046 104.694 122.537 105.415C121.139 107.763 119.515 109.968 117.688 112C115.804 113.842 114.363 116.023 112.585 117.907C112.182 118.29 111.757 118.65 111.315 118.988L110.891 118.563C112.902 116.044 114.957 113.545 116.884 110.941C118.81 108.337 120.779 105.435 122.664 102.641C123.681 101.116 124.57 99.5282 125.523 97.9826C125.688 97.6988 125.903 97.4471 126.158 97.2414C126.327 97.114 126.73 97.0294 126.856 97.1354C126.984 97.2415 127.322 97.686 127.281 97.9184C127.188 98.2568 127.03 98.5739 126.815 98.8502L126.709 98.9134ZM122.22 126.652C118.917 130.146 115.38 133.449 111.929 136.817C111.592 137.06 111.23 137.267 110.849 137.43C110.087 136.731 109.811 136.181 110.616 135.545C111.801 134.635 112.924 133.618 114.152 132.793C118.076 130.073 121.482 126.674 124.21 122.757C126.073 120.195 127.619 117.399 129.588 114.287C129.271 115.26 129.123 115.832 128.911 116.404C127.371 120.225 125.098 123.706 122.22 126.652ZM149.471 106.685C150.645 104.342 151.678 101.931 152.562 99.464C152.636 99.0655 152.844 98.7045 153.152 98.4421C153.462 98.1797 153.852 98.033 154.257 98.0244C154.098 99.1201 153.836 100.198 153.473 101.243C152.647 103.022 151.567 104.674 150.7 106.41C150.043 107.68 149.64 109.078 148.942 110.305C147.714 112.423 146.337 114.54 144.982 116.658C144.687 117.159 144.339 117.627 143.944 118.056C143.437 118.585 142.865 119.072 142.336 119.58L141.996 119.326C142.081 119.003 142.202 118.691 142.356 118.394C144.728 114.477 147.248 110.665 149.471 106.685ZM114.957 123.413C116.566 121.528 117.922 119.729 119.509 118.14C122.332 115.093 124.857 111.781 127.047 108.252C127.386 107.743 127.767 107.256 128.148 106.77L128.551 106.981C128.218 108.012 127.778 109.006 127.238 109.946C125.179 113.417 122.705 116.624 119.869 119.495C119.57 119.836 119.22 120.129 118.832 120.364C118.408 120.528 118.023 120.781 117.706 121.106C117.388 121.431 117.144 121.821 116.99 122.248C116.865 122.667 116.586 123.021 116.207 123.239C115.828 123.455 115.38 123.518 114.957 123.413ZM139.752 134.403C139.498 134.655 139.278 134.94 139.096 135.25C136.689 136.388 134.6 138.105 133.018 140.246C132.002 139.908 131.96 139.188 132.468 138.595C133.178 137.674 134.046 136.885 135.03 136.266C139.303 133.989 143.128 130.954 146.316 127.309C146.549 128.622 146.549 128.728 145.448 129.659C143.648 131.226 141.721 132.814 139.752 134.403ZM91.707 97.114C95.0737 91.9471 98.4193 86.7599 101.977 81.2545C102.024 81.8008 101.981 82.3524 101.85 82.8847C100.664 85.2143 99.4356 87.5214 98.1651 89.8092C97.657 90.7197 96.9582 91.5026 96.4289 92.3916C95.2854 94.4888 93.2738 95.5684 91.7917 97.22L91.707 97.114ZM129.8 136.435L139.137 127.627C139.498 128.177 139.286 128.707 138.884 129.257C138.207 130.209 137.55 131.205 136.894 132.158C136.703 132.411 136.491 132.751 136.237 132.857C134.352 133.772 132.667 135.053 131.282 136.626C130.838 137.155 130.266 137.452 129.8 136.435ZM158.915 78.5019H158.47C158.368 77.8003 158.317 77.0923 158.322 76.3843C158.672 72.7438 158.672 69.0774 158.322 65.4368C158.322 65.4368 158.47 65.2462 158.661 65.0341C159.931 65.3737 160.037 66.6857 160.016 67.4912C160.074 71.1907 159.704 74.8859 158.915 78.5019ZM149.704 98.4271L150.911 94.9536L154.151 85.6374C154.511 85.9726 154.759 86.4107 154.861 86.8916C154.964 87.3725 154.915 87.8738 154.723 88.3269C153.697 91.5562 152.401 94.6944 150.848 97.7074C150.723 97.9055 150.556 98.0737 150.358 98.1979C150.161 98.3232 149.937 98.4014 149.704 98.4271ZM112.881 121.486C114.11 120.13 115.401 118.818 116.65 117.484C116.833 117.205 117.071 116.968 117.35 116.785C117.688 116.616 118.302 116.341 118.472 116.489C119.001 116.955 118.62 117.421 118.217 117.802L116.799 119.157L109.642 126.102C109.239 126.483 108.922 126.949 108.541 127.372L108.096 126.992C109.684 125.17 111.272 123.307 112.881 121.486ZM130.202 123.011C129.101 124.006 128.551 125.657 126.603 126.123L138.376 111.851C138.02 113.265 137.331 114.573 136.364 115.663C135.369 116.87 134.438 118.14 133.441 119.347C132.442 120.636 131.359 121.86 130.202 123.011ZM106.106 135.821C106.106 135.504 106.106 135.207 106.254 135.101C109.516 132.804 112.563 130.218 115.358 127.372C115.358 127.372 115.613 127.372 115.909 127.224C115.147 129.744 110.722 133.598 106.106 135.821ZM141.107 115.24C140.108 118.571 137.991 121.457 135.114 123.413C136.675 120.393 138.697 117.636 141.107 115.24ZM154.723 95.9069C155.346 92.8393 156.202 89.8242 157.285 86.8863C158.322 87.1198 158.492 87.5857 158.301 88.1576C158.004 89.1527 157.645 90.1263 157.263 91.0795C156.882 92.0317 156.353 93.5141 155.844 94.6998C155.607 95.2107 155.214 95.6327 154.723 95.9069ZM144.135 110.877C145.006 107.968 146.252 105.186 147.841 102.598C148.857 104.039 148.032 105.075 147.65 105.944C146.955 107.875 145.747 109.58 144.157 110.877H144.135ZM160.588 107.49L163.319 102.789H163.764C163.85 103.287 163.85 103.794 163.764 104.292C163.044 105.817 162.557 107.171 160.609 107.49H160.588ZM103.755 134.741C104.936 132.87 106.688 131.43 108.752 130.633C107.391 132.334 105.688 133.734 103.755 134.741ZM103.967 126.992C104.655 125.457 105.884 124.228 107.419 123.54C106.602 124.981 105.409 126.174 103.967 126.992ZM139.308 122.757L139.646 123.011L137.106 126.208C137.275 124.725 137.275 124.725 139.308 122.757ZM124.041 21.5205L123.722 21.6265C123.722 21.3727 123.575 21.1188 123.49 20.865L123.807 20.7589C123.893 21.1188 123.977 21.2666 124.041 21.5205ZM50.8189 151.85C50.9243 151.863 51.0256 151.9 51.1153 151.956C51.1153 152.083 51.1153 152.232 51.1153 152.295L50.0778 153.162C49.9507 152.951 49.7179 152.718 49.7602 152.549C49.777 152.43 49.8189 152.316 49.883 152.215C49.9472 152.114 50.0321 152.027 50.1322 151.961C50.2323 151.895 50.3452 151.851 50.4637 151.832C50.582 151.813 50.7031 151.819 50.8189 151.85Z" fill="#101A24"/>
</g>
</svg>
